Flexion_states
version=1
nRows=14
nColumns=41
inDegrees=yes

# SIMM Motion File Header:
name Flexion_states
datacolumns 41
datarows 14
otherdata 1
range 2.07971528 4.38660243
endheader
time	/jointset/ground_thorax/thorax_tilt/value	/jointset/ground_thorax/thorax_tilt/speed	/jointset/ground_thorax/thorax_list/value	/jointset/ground_thorax/thorax_list/speed	/jointset/ground_thorax/thorax_rotation/value	/jointset/ground_thorax/thorax_rotation/speed	/jointset/ground_thorax/thorax_tx/value	/jointset/ground_thorax/thorax_tx/speed	/jointset/ground_thorax/thorax_ty/value	/jointset/ground_thorax/thorax_ty/speed	/jointset/ground_thorax/thorax_tz/value	/jointset/ground_thorax/thorax_tz/speed	/jointset/sternoclavicular/sternoclavicular_r2/value	/jointset/sternoclavicular/sternoclavicular_r2/speed	/jointset/sternoclavicular/sternoclavicular_r3/value	/jointset/sternoclavicular/sternoclavicular_r3/speed	/jointset/unrotscap/unrotscap_r3/value	/jointset/unrotscap/unrotscap_r3/speed	/jointset/unrotscap/unrotscap_r2/value	/jointset/unrotscap/unrotscap_r2/speed	/jointset/acromioclavicular/acromioclavicular_r2/value	/jointset/acromioclavicular/acromioclavicular_r2/speed	/jointset/acromioclavicular/acromioclavicular_r3/value	/jointset/acromioclavicular/acromioclavicular_r3/speed	/jointset/acromioclavicular/acromioclavicular_r1/value	/jointset/acromioclavicular/acromioclavicular_r1/speed	/jointset/unrothum/unrothum_r1/value	/jointset/unrothum/unrothum_r1/speed	/jointset/unrothum/unrothum_r3/value	/jointset/unrothum/unrothum_r3/speed	/jointset/unrothum/unrothum_r2/value	/jointset/unrothum/unrothum_r2/speed	/jointset/shoulder0/elv_angle/value	/jointset/shoulder0/elv_angle/speed	/jointset/shoulder1/shoulder_elv/value	/jointset/shoulder1/shoulder_elv/speed	/jointset/shoulder1/shoulder1_r2/value	/jointset/shoulder1/shoulder1_r2/speed	/jointset/shoulder2/shoulder_rot/value	/jointset/shoulder2/shoulder_rot/speed
      2.07971528	      0.00000000	      0.00000000	     -0.00000000	     -0.00000000	     -0.00000000	      0.00000000	      0.00000000	      0.00000000	     -0.00000000	     -0.00000000	     -0.00000000	     -0.00000000	    -11.80388727	     15.75786208	      4.99956560	     -6.67428139	     -4.99956560	      6.67428139	     11.80388727	    -15.75786208	     -2.39002866	      3.19062197	     19.31511315	    -25.78514027	      8.68220578	    -11.59050388	     -8.68220578	     11.59050388	    -19.31511315	     25.78514027	      2.39002866	     -3.19062197	     90.00000000	      0.00000000	     48.77685562	    -65.11574924	    -90.00000000	      0.00000000	      0.00000000	      0.00000000
      2.13629454	      0.00000000	      0.00000000	     -0.00000000	     -0.00000000	     -0.00000000	      0.00000000	      0.00000000	      0.00000000	     -0.00000000	     -0.00000000	     -0.00000000	     -0.00000000	    -10.92847966	     15.15647821	      4.62878454	     -6.41956376	     -4.62878454	      6.41956376	     10.92847966	    -15.15647821	     -2.21277779	      3.06885490	     17.88265308	    -24.80107483	      8.03831035	    -11.14816328	     -8.03831035	     11.14816328	    -17.88265308	     24.80107483	      2.21277779	     -3.06885490	     90.00000000	      0.00000000	     45.15943453	    -62.63066837	    -90.00000000	      0.00000000	      0.00000000	      0.00000000
      2.19287381	      0.00000000	      0.00000000	     -0.00000000	     -0.00000000	     -0.00000000	      0.00000000	      0.00000000	      0.00000000	     -0.00000000	     -0.00000000	     -0.00000000	     -0.00000000	    -10.09101712	     14.43424439	      4.27407522	     -6.11365985	     -4.27407522	      6.11365985	     10.09101712	    -14.43424439	     -2.04320997	      2.92261837	     16.51228388	    -23.61925839	      7.42232496	    -10.61693297	     -7.42232496	     10.61693297	    -16.51228388	     23.61925839	      2.04320997	     -2.92261837	     90.00000000	      0.00000000	     41.69881276	    -59.64620283	    -90.00000000	      0.00000000	      0.00000000	      0.00000000
      2.26834348	      0.00000000	      0.00000000	     -0.00000000	     -0.00000000	     -0.00000000	      0.00000000	      0.00000000	      0.00000000	     -0.00000000	     -0.00000000	     -0.00000000	     -0.00000000	     -9.04034513	     13.40207706	      3.82906050	     -5.67648283	     -3.82906050	      5.67648283	      9.04034513	    -13.40207706	     -1.83047190	      2.71362709	     14.79303259	    -21.93028694	      6.64951595	     -9.85773484	     -6.64951595	      9.85773484	    -14.79303259	     21.93028694	      1.83047190	     -2.71362709	     90.00000000	      0.00000000	     37.35715184	    -55.38100820	    -90.00000000	      0.00000000	      0.00000000	      0.00000000
      2.36271165	      0.00000000	      0.00000000	     -0.00000000	     -0.00000000	     -0.00000000	      0.00000000	      0.00000000	      0.00000000	     -0.00000000	     -0.00000000	     -0.00000000	     -0.00000000	     -7.83778701	     12.08263984	      3.31971404	     -5.11763194	     -3.31971404	      5.11763194	      7.83778701	    -12.08263984	     -1.58698022	      2.44646995	     12.82524473	    -19.77124572	      5.76498895	     -8.88723884	     -5.76498895	      8.88723884	    -12.82524473	     19.77124572	      1.58698022	     -2.44646995	     90.00000000	      0.00000000	     32.38785637	    -49.92873666	    -90.00000000	      0.00000000	      0.00000000	      0.00000000
      2.49363812	      0.00000000	      0.00000000	     -0.00000000	     -0.00000000	     -0.00000000	      0.00000000	      0.00000000	      0.00000000	     -0.00000000	     -0.00000000	     -0.00000000	     -0.00000000	     -6.37580664	     10.25189200	      2.70048864	     -4.34221417	     -2.70048864	      4.34221417	      6.37580664	    -10.25189200	     -1.29096121	      2.07578361	     10.43295517	    -16.77552907	      4.68964706	     -7.54065452	     -4.68964706	      7.54065452	    -10.43295517	     16.77552907	      1.29096121	     -2.07578361	     90.00000000	      0.00000000	     26.34655795	    -42.36359130	    -90.00000000	      0.00000000	      0.00000000	      0.00000000
      2.70284423	      0.00000000	      0.00000000	     -0.00000000	     -0.00000000	     -0.00000000	     -0.00000000	      0.00000000	      0.00000000	     -0.00000000	     -0.00000000	     -0.00000000	     -0.00000000	     -4.53458508	      7.35731058	      1.92063471	     -3.11620706	     -1.92063471	      3.11620706	      4.53458508	     -7.35731058	     -0.91815417	      1.48969426	      7.42010000	    -12.03902436	      3.33535893	     -5.41158035	     -3.33535893	      5.41158035	     -7.42010000	     12.03902436	      0.91815417	     -1.48969426	     90.00000000	      0.00000000	     18.73813234	    -30.40239777	    -90.00000000	      0.00000000	      0.00000000	      0.00000000
      3.11507700	      0.00000000	      0.00000000	     -0.00000000	     -0.00000000	     -0.00000000	     -0.00000000	      0.00000000	      0.00000000	     -0.00000000	     -0.00000000	     -0.00000000	     -0.00000000	     -2.65521577	      1.79320471	      1.12462320	     -0.75951628	     -1.12462320	      0.75951628	      2.65521577	     -1.79320471	     -0.53762304	      0.36308468	      4.34482234	     -2.93428353	      1.95301168	     -1.31896993	     -1.95301168	      1.31896993	     -4.34482234	      2.93428353	      0.53762304	     -0.36308468	     90.00000000	      0.00000000	     10.97206991	     -7.41000701	    -90.00000000	      0.00000000	      0.00000000	      0.00000000
      3.81124055	      0.00000000	     -0.00000000	     -0.00000000	     -0.00000000	     -0.00000000	     -0.00000000	      0.00000000	      0.00000000	     -0.00000000	     -0.00000000	     -0.00000000	     -0.00000000	     -4.54923919	     -7.13123406	      1.92684149	      3.02045179	     -1.92684149	     -3.02045179	      4.54923919	      7.13123406	     -0.92112131	     -1.44391872	      7.44407902	     11.66908744	      3.34613758	      5.24529251	     -3.34613758	     -5.24529251	     -7.44407902	    -11.66908744	      0.92112131	      1.44391872	     90.00000000	      0.00000000	     18.79868707	     29.46818839	    -90.00000000	      0.00000000	      0.00000000	     -0.00000000
      3.90548146	      0.00000000	     -0.00000000	     -0.00000000	     -0.00000000	     -0.00000000	     -0.00000000	      0.00000000	      0.00000000	     -0.00000000	     -0.00000000	     -0.00000000	     -0.00000000	     -5.27601465	     -8.29049971	      2.23466903	      3.51146162	     -2.23466903	     -3.51146162	      5.27601465	      8.29049971	     -1.06827742	     -1.67864463	      8.63332711	     13.56603434	      3.88070843	      6.09797627	     -3.88070843	     -6.09797627	     -8.63332711	    -13.56603434	      1.06827742	      1.67864463	     90.00000000	      0.00000000	     21.80191991	     34.25858772	    -90.00000000	      0.00000000	      0.00000000	     -0.00000000
      4.07555389	      0.00000000	     -0.00000000	     -0.00000000	     -0.00000000	     -0.00000000	     -0.00000000	      0.00000000	      0.00000000	     -0.00000000	     -0.00000000	     -0.00000000	     -0.00000000	     -6.86178393	    -10.35053515	      2.90632552	      4.38399472	     -2.90632552	     -4.38399472	      6.86178393	     10.35053515	     -1.38936097	     -2.09575669	     11.22817678	     16.93694229	      5.04710175	      7.61321029	     -5.04710175	     -7.61321029	    -11.22817678	    -16.93694229	      1.38936097	      2.09575669	     90.00000000	      0.00000000	     28.35474758	     42.77121145	    -90.00000000	      0.00000000	      0.00000000	     -0.00000000
      4.19384239	      0.00000000	     -0.00000000	     -0.00000000	      0.00000000	     -0.00000000	     -0.00000000	      0.00000000	      0.00000000	     -0.00000000	     -0.00000000	     -0.00000000	     -0.00000000	     -8.16949249	    -11.75529156	      3.46020871	      4.97898276	     -3.46020871	     -4.97898276	      8.16949249	     11.75529156	     -1.65414331	     -2.38018910	     13.36802599	     19.23559429	      6.00897088	      8.64646179	     -6.00897088	     -8.64646179	    -13.36802599	    -19.23559429	      1.65414331	      2.38018910	     90.00000000	      0.00000000	     33.75855314	     48.57604501	    -90.00000000	      0.00000000	      0.00000000	     -0.00000000
      4.30004832	      0.00000000	     -0.00000000	     -0.00000000	     -0.00000000	     -0.00000000	     -0.00000000	      0.00000000	      0.00000000	     -0.00000000	     -0.00000000	     -0.00000000	     -0.00000000	     -9.48354664	    -12.98123079	      4.01677959	      5.49823235	     -4.01677959	     -5.49823235	      9.48354664	     12.98123079	     -1.92021050	     -2.62841494	     15.51825871	     21.24164148	      6.97550744	      9.54818648	     -6.97550744	     -9.54818648	    -15.51825871	    -21.24164148	      1.92021050	      2.62841494	     90.00000000	      0.00000000	     39.18858040	     53.64195755	    -90.00000000	      0.00000000	      0.00000000	     -0.00000000
      4.38660243	      0.00000000	     -0.00000000	     -0.00000000	     -0.00000000	     -0.00000000	     -0.00000000	      0.00000000	      0.00000000	     -0.00000000	     -0.00000000	     -0.00000000	     -0.00000000	    -10.64805448	    -13.90757641	      4.51000977	      5.89058833	     -4.51000977	     -5.89058833	     10.64805448	     13.90757641	     -2.15599784	     -2.81597964	     17.42378357	     22.75745319	      7.83204702	     10.22954875	     -7.83204702	    -10.22954875	    -17.42378357	    -22.75745319	      2.15599784	      2.81597964	     90.00000000	      0.00000000	     44.00064184	     57.46986828	    -90.00000000	      0.00000000	      0.00000000	     -0.00000000
